REM MD5 7cbb9f8848eb95f125a992c3bdb78331
FILE "Hybrid (Japan).bin" BINARY
  TRACK 01 MODE2/2352
    INDEX 01 00:00:00
  TRACK 02 AUDIO
    INDEX 00 11:35:62
    INDEX 01 11:37:62
  TRACK 03 AUDIO
    INDEX 00 14:18:69
    INDEX 01 14:20:69
  TRACK 04 AUDIO
    INDEX 00 17:45:01
    INDEX 01 17:47:01
  TRACK 05 AUDIO
    INDEX 00 21:05:13
    INDEX 01 21:07:13
  TRACK 06 AUDIO
    INDEX 00 24:15:14
    INDEX 01 24:17:14
REM LEADOUT 27:41:21
